<svg width="256" height="256" viewBox="0 0 256 256" fill="none" xmlns="http://www.w3.org/2000/svg">
<path d="M99.0075 12.0107C102.815 8.20286 107.335 5.18229 112.31 3.12149C117.285 1.06068 122.618 0 128.002 0C133.387 0 138.72 1.06068 143.695 3.12149C148.669 5.18229 153.19 8.20286 156.997 12.0107L243.994 99.0012C251.681 106.693 256 117.124 256 127.999C256 138.874 251.681 149.305 243.994 156.997L185.998 214.992L156.997 185.992L215.016 127.996L186.021 99.0012L99.0075 185.992L156.997 243.987C149.307 251.678 138.876 255.999 128 255.999C117.123 255.999 106.692 251.678 99.0017 243.987L41.0119 185.998L157.003 70.0063L128.002 41.0056L12.0112 156.973C4.32052 149.283 0 138.852 0 127.976C0 117.099 4.32052 106.669 12.0112 98.9778L99.0075 11.9873V12.0107Z" fill="white"/>
</svg>
