<svg width="157" height="30" viewBox="0 0 157 30" fill="none" xmlns="http://www.w3.org/2000/svg">
<path d="M11.3839 1.37972C12.2685 0.496237 13.4676 0 14.7179 0C15.9681 0 17.1672 0.496237 18.0518 1.37972L28.0535 11.3837C28.937 12.2683 29.4332 13.4674 29.4332 14.7176C29.4332 15.9678 28.937 17.1669 28.0535 18.0515L21.3857 24.7216L18.0518 21.3854L24.7196 14.7176L21.3857 11.3837L11.3839 21.3854L18.0518 28.0555C17.1671 28.9396 15.9675 29.4363 14.7167 29.4363C13.466 29.4363 12.2664 28.9396 11.3817 28.0555L4.71389 21.3876L18.0518 8.04977L14.7179 4.71587L1.38 18.056C0.496508 17.1714 0.000244141 15.9723 0.000244141 14.7221C0.000244141 13.4719 0.496508 12.2727 1.38 11.3882L11.3839 1.38422V1.37972Z" fill="white"/>
<path d="M45.3362 9.30787H54.3382L55.001 6.10876H41.9911L38.5471 23.3265H42.5572L43.7996 17.054H51.7547L52.4197 13.8572H44.4331L45.3362 9.30787Z" fill="white"/>
<path d="M65.2589 16.8406L60.9544 6.10876H57.7081L54.2642 23.3265H58.0025L60.0603 12.9878L63.6099 21.5067H65.3802L71.9604 13.0956L69.9317 23.3265H73.67L77.0893 6.10876H73.67L65.2589 16.8406Z" fill="white"/>
<path d="M93.4443 5.92453C92.1715 5.89901 90.9059 6.12026 89.7172 6.57604C88.7248 6.94993 87.8532 7.58766 87.1966 8.42046C86.5869 9.23936 86.2704 10.2396 86.298 11.2601C86.2712 11.9446 86.4378 12.6227 86.7787 13.2169C87.0939 13.7297 87.5228 14.1633 88.0323 14.4839C88.5724 14.8233 89.1498 15.0992 89.7532 15.3062C90.3845 15.5308 91.0157 15.7241 91.647 15.897C92.2312 16.0544 92.8065 16.2434 93.3701 16.4632C93.8423 16.64 94.2728 16.9122 94.635 17.2629C94.7981 17.4273 94.9259 17.6233 95.0105 17.8389C95.0951 18.0545 95.1347 18.2851 95.127 18.5165C95.1417 19.0992 94.9355 19.6658 94.5496 20.1026C94.1036 20.5756 93.5388 20.9201 92.9141 21.1001C92.1253 21.3414 91.3036 21.4574 90.4788 21.4438C89.7706 21.445 89.0647 21.362 88.376 21.1967C87.7132 21.0388 87.0697 20.8083 86.4575 20.5092C85.8895 20.2365 85.3606 19.8889 84.8849 19.4758L83.802 21.4438C84.2849 21.8845 84.8376 22.2421 85.4375 22.502C86.1649 22.8283 86.9237 23.0797 87.7021 23.2523C88.5375 23.4401 89.3912 23.5342 90.2474 23.5331C91.5424 23.5594 92.831 23.343 94.0464 22.8951C95.056 22.5267 95.9424 21.8832 96.6052 21.0372C97.2236 20.2121 97.5479 19.2037 97.5263 18.1728C97.5524 17.5164 97.3861 16.8667 97.0478 16.3037C96.7205 15.8045 96.2822 15.3878 95.7672 15.086C95.2205 14.7605 94.6396 14.4961 94.0351 14.2975C93.4106 14.0923 92.783 13.8961 92.1525 13.7089C91.5212 13.5202 90.9439 13.318 90.4182 13.1068C89.9474 12.9276 89.5201 12.6504 89.1646 12.2935C89.0064 12.1217 88.8837 11.9203 88.8035 11.701C88.7233 11.4816 88.6872 11.2486 88.6973 11.0153C88.704 10.434 88.913 9.87319 89.2881 9.42917C89.7172 8.94348 90.2689 8.58192 90.8854 8.38226C91.6704 8.122 92.4939 7.99743 93.3207 8.01385C94.1691 8.01101 95.0137 8.12668 95.8301 8.35755C96.6053 8.57517 97.3372 8.92478 97.9936 9.39099L98.9776 7.36908C98.221 6.86208 97.3793 6.49528 96.4929 6.28622C95.4958 6.03846 94.4716 5.91695 93.4443 5.92453Z" fill="white"/>
<path d="M114.517 13.5135H104.63L106.11 6.10876H103.65L100.206 23.3265H102.666L104.203 15.6522H114.09L112.554 23.3265H115.014L118.458 6.10876H115.998L114.517 13.5135Z" fill="white"/>
<path d="M135.23 6.82314C134.017 6.21657 132.55 5.91703 130.829 5.92451C129.356 5.90199 127.893 6.17312 126.525 6.72206C125.285 7.22968 124.163 7.98756 123.229 8.94838C122.311 9.89956 121.591 11.0246 121.113 12.2576C120.616 13.5396 120.366 14.904 120.376 16.2789C120.35 17.608 120.681 18.9198 121.333 20.0779C121.981 21.1838 122.945 22.0703 124.101 22.6232C125.314 23.2223 126.774 23.5219 128.48 23.5219C129.957 23.5435 131.423 23.2724 132.795 22.7243C134.041 22.2194 135.167 21.4613 136.104 20.498C137.022 19.5465 137.741 18.4215 138.218 17.1888C138.716 15.9069 138.967 14.5425 138.958 13.1674C138.986 11.8392 138.659 10.5275 138.009 9.36849C137.358 8.26143 136.39 7.37487 135.23 6.82314ZM135.92 16.3913C135.568 17.3363 135.039 18.2061 134.363 18.9546C133.677 19.7099 132.833 20.3057 131.892 20.7002C130.873 21.1286 129.776 21.342 128.671 21.327C127.391 21.327 126.322 21.1023 125.462 20.653C124.641 20.2494 123.956 19.6125 123.494 18.8221C123.031 17.9923 122.798 17.0537 122.82 16.1037C122.814 15.055 122.997 14.0138 123.362 13.0304C123.714 12.0797 124.248 11.2067 124.934 10.4603C125.619 9.70846 126.457 9.11243 127.392 8.71251C128.416 8.28198 129.517 8.06854 130.627 8.08571C131.731 8.05464 132.827 8.28561 133.824 8.75968C134.648 9.16004 135.333 9.79768 135.792 10.5906C136.251 11.4219 136.484 12.3594 136.466 13.309C136.471 14.3608 136.286 15.4049 135.92 16.3913Z" fill="white"/>
<path d="M155.351 7.43649C154.251 6.55135 152.694 6.10876 150.678 6.10876H144.282L140.84 23.3265H143.298L144.343 18.1122H148.93C150.407 18.1483 151.875 17.8671 153.234 17.2877C154.385 16.7935 155.359 15.9615 156.027 14.9018C156.698 13.7689 157.035 12.4688 156.997 11.1523C156.997 9.56175 156.449 8.32314 155.351 7.43649ZM153.075 14.803C152.1 15.5818 150.735 15.9712 148.979 15.9712H144.774L146.319 8.24975H150.455C151.767 8.24975 152.776 8.51185 153.482 9.03605C154.187 9.56025 154.54 10.3391 154.54 11.3725C154.54 12.8822 154.051 14.0257 153.075 14.803Z" fill="white"/>
</svg>
